<svg xmlns="http://www.w3.org/2000/svg" version="1.1" xmlns:xlink="http://www.w3.org/1999/xlink" xmlns:svgjs="http://svgjs.com/svgjs" width="512" height="512" x="0" y="0" viewBox="0 0 682.6677 682" style="enable-background:new 0 0 512 512" xml:space="preserve" class=""><g><path xmlns="http://www.w3.org/2000/svg" d="m551.34375 476.421875c-5.269531-2.648437-11.691406-.527344-14.34375 4.742187-2.648438 5.269532-.527344 11.6875 4.742188 14.339844 16.214843 8.078125 25.582031 25.496094 23.367187 43.476563-2.210937 17.976562-15.515625 32.609375-33.199219 36.515625-17.691406 3.90625-35.921875-3.757813-45.496094-19.132813-9.582031-15.375-8.421874-35.121093 2.882813-49.273437 2.539063-2.941406 3.277344-7.035156 1.925781-10.683594-1.347656-3.640625-4.582031-6.261719-8.421875-6.839844-3.847656-.570312-7.699219.992188-10.058593 4.082032-16.964844 21.167968-18.742188 50.730468-4.433594 73.777343 14.304687 23.046875 41.585937 34.570313 68.082031 28.757813 26.492187-5.808594 46.449219-27.691406 49.796875-54.609375 3.351562-26.917969-10.632812-53.027344-34.898438-65.152344zm0 0" fill="#5c3d03" data-original="#5c3d03" class=""></path><path xmlns="http://www.w3.org/2000/svg" d="m381.652344 185.078125c-11.566406 18.207031-11.027344 41.589844 1.371094 59.246094 12.398437 17.652343 34.207031 26.101562 55.261718 21.398437 21.054688-4.695312 37.207032-21.621094 40.917969-42.867187 3.714844-21.25-5.738281-42.648438-23.953125-54.207031-24.867188-15.742188-57.785156-8.394532-73.597656 16.429687zm72.027344 45.742187c-7.761719 12.222657-22.773438 17.707032-36.585938 13.367188-13.816406-4.335938-23-17.414062-22.386719-31.878906.609375-14.46875 10.859375-26.722656 24.988281-29.878906 2.3125-.511719 4.667969-.769532 7.03125-.769532 11.664063.019532 22.398438 6.386719 28.007813 16.613282 5.605469 10.230468 5.203125 22.699218-1.054687 32.546874zm0 0" fill="#5c3d03" data-original="#5c3d03" class=""></path><path xmlns="http://www.w3.org/2000/svg" d="m74.691406 533.648438c0-23.5625 19.097656-42.664063 42.664063-42.664063 1.921875-.007813 3.847656.15625 5.746093.476563 3.796876.753906 7.699219-.613282 10.203126-3.5625 2.5-2.953126 3.207031-7.027344 1.847656-10.648438-1.359375-3.625-4.574219-6.226562-8.402344-6.796875-3.101562-.539063-6.246094-.808594-9.394531-.800781-35.347657 0-64.003907 28.648437-64.003907 63.996094 0 35.34375 28.65625 63.996093 64.003907 63.996093 19.46875.078125 37.894531-8.808593 49.957031-24.097656 2.445312-2.976563 3.097656-7.042969 1.695312-10.636719-1.402343-3.59375-4.632812-6.152344-8.453124-6.691406-3.816407-.535156-7.625 1.027344-9.964844 4.09375-8.03125 10.160156-20.285156 16.058594-33.234375 16-23.566407 0-42.664063-19.101562-42.664063-42.664062zm0 0" fill="#5c3d03" data-original="#5c3d03" class=""></path><path xmlns="http://www.w3.org/2000/svg" d="m362.675781 640.308594c5.890625 0 10.664063-4.773438 10.664063-10.664063 0-5.894531-4.773438-10.667969-10.664063-10.667969h-32c-5.886719 0-10.664062 4.773438-10.664062 10.667969 0 5.890625 4.777343 10.664063 10.664062 10.664063zm0 0" fill="#5c3d03" data-original="#5c3d03" class=""></path><path xmlns="http://www.w3.org/2000/svg" d="m629.332031 618.976562h-42.929687c36.855468-27.433593 51.972656-75.410156 37.496094-119.019531-14.472657-43.605469-55.277344-73.023437-101.226563-72.96875-4.496094.027344-8.988281.339844-13.453125.9375l-5.824219-25.25c9.75-4.21875 16.777344-12.996093 18.746094-23.4375 1.964844-10.4375-1.375-21.175781-8.921875-28.65625-6.007812-6.023437-14.199219-9.363281-22.703125-9.246093l-56.246094.316406-19.582031-56.976563c-.785156-2.289062-2.324219-4.238281-4.367188-5.535156l-35.910156-22.816406-60.113281-37.695313c-9.996094-6.203125-23.125-3.152344-29.355469 6.828125l-56.683594 90.40625c-2.972656 4.800781-3.921874 10.582031-2.640624 16.074219 1.246093 5.515625 4.652343 10.300781 9.457031 13.28125l45.320312 28.433594h-56.378906c-17.636719.089844-31.914063 14.367187-32 32.003906.027344 10.015625 4.769531 19.441406 12.800781 25.4375l-20.023437 20.019531c-29.882813-24.644531-70.789063-31.128906-106.832031-16.933593-36.039063 14.191406-61.539063 46.824218-66.597657 85.230468-5.058593 38.402344 11.121094 76.527344 42.257813 99.566406h-42.933594c-5.886719 0-10.6640625 4.773438-10.6640625 10.667969 0 5.890625 4.7773435 10.664063 10.6640625 10.664063h277.324219c5.894531 0 10.667969-4.773438 10.667969-10.664063 0-5.894531-4.773438-10.667969-10.667969-10.667969h-106.929688c23.980469-17.835937 39.359375-44.929687 42.390625-74.660156h11.210938c5.886718 0 10.664062-4.773437 10.664062-10.667968 0-5.890626-4.777344-10.664063-10.664062-10.664063h-11.210938c-2.085937-20.84375-10.289062-40.605469-23.582031-56.789063l28.539063-28.546874h58.804687l10.664063 38.539062-50.171876 78.792969c-9.476562 14.9375-5.054687 34.730469 9.882813 44.207031 14.933594 9.476562 34.730469 5.054688 44.207031-9.882812l60.078125-94.707032c3.320313-5.078125 4.285157-11.347656 2.636719-17.191406l-20.394531-74.054688 28.265625-44.449218 9.761718 31.722656c2.734376 8.957031 11.015626 15.0625 20.382813 15.03125l37.066406-.144531-75.871093 122.527343c-2.132813 3.242188-2.34375 7.390626-.539063 10.828126 1.808594 3.4375 5.339844 5.625 9.21875 5.703124 3.886719.082032 7.503906-1.953124 9.453125-5.3125l82.742188-133.601562h17.578124l6.25 27.066406c-37.527343 12.648438-64.933593 45.082032-71.125 84.199219-6.199218 39.113281 9.835938 78.433594 41.617188 102.054687h-53.597656c-5.886719 0-10.660156 4.773438-10.660156 10.667969 0 5.890625 4.773437 10.664063 10.660156 10.664063h223.992187c5.894531 0 10.667969-4.773438 10.667969-10.664063 0-5.894531-4.773438-10.667969-10.667969-10.667969zm-511.976562 0c-37.339844.074219-70.382813-24.140624-81.574219-59.757812-11.1875-35.625 2.082031-74.382812 32.757812-95.671875 30.667969-21.289063 71.621094-20.164063 101.078126 2.773437l-59.734376 59.734376c-3.074218 3.03125-4.015624 7.628906-2.382812 11.632812 1.640625 3.996094 5.527344 6.617188 9.855469 6.628906h84.589843c-5.40625 42.621094-41.628906 74.59375-84.589843 74.660156zm84.589843-95.992187h-58.84375l41.597657-41.601563c9.390625 12.0625 15.351562 26.429688 17.246093 41.601563zm22.070313-106.667969c-5.890625 0-10.667969-4.773437-10.667969-10.660156-.007812-2.878906 1.175782-5.625 3.265625-7.597656 1.941407-1.988282 4.617188-3.101563 7.402344-3.074219h52.765625c-.199219 2.382813.011719 4.78125.605469 7.097656l3.949219 14.234375zm72.636719-57.65625-50.378906-31.605468 56.675781-90.386719 50.9375 32-3.601563 5.640625zm29.484375 33.21875c-3.222657 5.078125-4.152344 11.277344-2.566407 17.070313l20.398438 74.035156-60.160156 94.832031c-1.515625 2.390625-3.925782 4.070313-6.691406 4.671875-2.761719.601563-5.652344.074219-8.027344-1.46875-4.972656-3.140625-6.46875-9.71875-3.335938-14.703125l50.128906-78.789062c3.238282-5.097656 4.148438-11.328125 2.519532-17.140625l-20.503906-74.042969 11.09375-17.359375 46.859374-73.757813 6.402344 20.78125 1.875 6.046876zm76.410156-7.558594-16.351563-53.117187c-.050781-.277344-.125-.546875-.214843-.808594l-14.769531-47.851562c-.050782-.242188-.117188-.492188-.195313-.726563l-.0625-.210937 1.070313-1.601563 23.71875 15.101563 18.378906 53.453125c2.949218 8.621094 11.042968 14.417968 20.160156 14.429687h.09375l56.296875-.320312c2.851563-.191407 5.632813.9375 7.542969 3.0625 2 1.964843 3.128906 4.65625 3.132812 7.464843.03125 2.835938-1.074218 5.570313-3.066406 7.59375-1.992188 2.019532-4.707031 3.167969-7.546875 3.179688zm120.125 234.65625c-41.363281.035157-76.78125-29.613281-84.019531-70.335937-7.242188-40.714844 15.777344-80.761719 54.609375-94.988281l19.007812 82.382812c1.113281 4.847656 5.429688 8.28125 10.402344 8.28125.804687 0 1.609375-.09375 2.398437-.269531 2.761719-.632813 5.160157-2.335937 6.660157-4.734375 1.5-2.402344 1.988281-5.304688 1.351562-8.0625l-19.054687-82.496094c31.359375-3.183594 61.917968 11.171875 79.480468 37.335938 17.5625 26.167968 19.277344 59.886718 4.453126 87.699218-14.828126 27.808594-43.773438 45.183594-75.289063 45.1875zm0 0" fill="#5c3d03" data-original="#5c3d03" class=""></path><path xmlns="http://www.w3.org/2000/svg" d="m21.355469 167.25v57.078125c0 38.28125 30.003906 63.996094 74.667969 63.996094h85.328124c44.660157 0 74.664063-25.714844 74.664063-63.996094v-53.875c18.367187-2.546875 32.046875-18.257813 32.046875-36.800781 0-18.546875-13.679688-34.25-32.046875-36.800782v-21.855468c-.046875-41.210938-33.449219-74.613282-74.664063-74.664063h-85.328124c-41.222657.050781-74.617188 33.453125-74.667969 74.664063v25.078125c-13.03125 6.109375-21.355469 19.203125-21.355469 33.597656s8.324219 27.488281 21.355469 33.601563zm213.328125 57.078125c0 31.453125-27.550782 42.664063-53.332032 42.664063h-85.328124c-25.78125 0-53.335938-11.210938-53.335938-42.664063v-10.667969h91.578125l28.878906 28.875c4.164063 4.160156 10.917969 4.160156 15.082031 0l28.871094-28.875h27.585938zm0-32h-32c-2.828125 0-5.542969 1.121094-7.542969 3.125l-24.457031 24.457031-24.457032-24.457031c-2-2.003906-4.714843-3.125-7.539062-3.125h-96v-21.332031h191.996094zm-191.996094-117.332031c.035156-29.4375 23.890625-53.292969 53.335938-53.332032h85.328124c29.4375.039063 53.292969 23.894532 53.332032 53.332032v21.332031h-191.996094zm-5.332031 42.664062h213.324219c8.835937 0 16 7.164063 16 16.003906 0 8.835938-7.164063 16-16 16h-213.324219c-8.835938 0-16-7.164062-16-16 0-8.839843 7.164062-16.003906 16-16.003906zm0 0" fill="#5c3d03" data-original="#5c3d03" class=""></path></g></svg>